<svg xmlns="http://www.w3.org/2000/svg" width="3000" height="2000" viewBox="0 0 3000 2000"><rect width="100%" height="100%" fill="#e5e5e5"/><path d="M687.39 856.09v92.39h21.72q30.44 0 45.56-12.03 15.11-12.02 15.11-35.02 0-23.2-12.66-34.27-12.67-11.07-39.71-11.07zm149.03 43q0 50.24-31.4 76.86-31.41 26.61-89.31 26.61h-28.32v110.7H621.4V802.01h99.42q56.63 0 86.11 24.38 29.49 24.38 29.49 72.7m250.14 214.17h-45.34l-12.56-32.36h-1.71q-16.39 20.65-33.74 28.63-17.35 7.99-45.24 7.99-34.27 0-53.97-19.59-19.69-19.58-19.69-55.78 0-37.89 26.51-55.88 26.5-17.99 79.94-19.9l41.3-1.28v-10.43q0-36.19-37.05-36.19-28.52 0-67.06 17.24l-21.5-43.86q41.09-21.5 91.12-21.5 47.9 0 73.45 20.87 25.54 20.86 25.54 63.44zm-64.5-90.69v-19.59l-25.12.85q-28.32.86-42.16 10.22-13.83 9.37-13.83 28.53 0 27.46 31.5 27.46 22.57 0 36.09-12.98 13.52-12.99 13.52-34.49m191.81 88.99-94.52-236.31h71.1l44.92 133.91q5.75 17.45 7.88 41.3h1.28q2.34-21.93 9.15-41.3l44.07-133.91h69.62l-100.7 268.45q-13.84 37.26-39.49 55.78-25.66 18.52-59.93 18.52-16.82 0-33-3.62v-51.52q11.71 2.77 25.55 2.77 17.24 0 30.12-10.54t20.12-31.82zm257.6-121.35v123.05h-64.93V802.01h178.4v54.08h-113.47v80.26h105.59v53.86zM1705.65 782v331.26h-64.93V782zm119.86 211.83q0 35.34 11.6 53.43 11.6 18.1 37.79 18.1 25.97 0 37.36-17.99t11.39-53.54q0-35.34-11.5-53.01-11.49-17.67-37.68-17.67-25.97 0-37.47 17.56-11.49 17.57-11.49 53.12m164.56 0q0 58.12-30.65 90.9-30.66 32.79-85.37 32.79-34.28 0-60.47-15.01-26.18-15.01-40.23-43.11t-14.05-65.57q0-58.33 30.44-90.69t85.58-32.36q34.28 0 60.46 14.9 26.19 14.9 40.24 42.79t14.05 65.36m319.98 119.43h-70.68l-18.31-83.24-24.7-105.17h-1.49l-43.43 188.41h-69.83l-67.69-238.01h64.71l27.47 105.38q6.6 28.31 13.41 78.13h1.28q.85-16.18 7.45-51.31l3.4-18.09 29.38-114.11h71.53l27.89 114.11q.85 4.68 2.66 13.84 1.81 9.15 3.52 19.48 1.7 10.32 3.08 20.22 1.39 9.9 1.6 15.86h1.28q1.91-15.33 6.81-42.05 4.9-26.71 7.03-36.08l28.52-105.38h63.66z"/></svg>