<svg xmlns="http://www.w3.org/2000/svg" width="2000" height="3000" viewBox="0 0 2000 3000"><rect width="100%" height="100%" fill="#e5e5e5"/><path d="M457.635 1403.95v61.66h14.5q20.32 0 30.4-8.03 10.09-8.02 10.09-23.37 0-15.49-8.45-22.88-8.46-7.38-26.5-7.38zm99.47 28.7q0 33.53-20.96 51.29t-59.61 17.76h-18.9v73.89h-44.04v-207.74h66.35q37.8 0 57.48 16.27t19.68 48.53m166.95 142.94h-30.26l-8.39-21.6h-1.13q-10.94 13.79-22.52 19.11-11.58 5.33-30.2 5.33-22.87 0-36.02-13.07-13.14-13.07-13.14-37.23 0-25.29 17.69-37.3 17.69-12 53.35-13.28l27.57-.85v-6.97q0-24.15-24.72-24.15-19.04 0-44.76 11.51l-14.35-29.27q27.42-14.35 60.81-14.35 31.97 0 49.02 13.92 17.05 13.93 17.05 42.34zm-43.05-60.53v-13.07l-16.77.57q-18.89.56-28.13 6.82-9.24 6.25-9.24 19.04 0 18.33 21.03 18.33 15.06 0 24.09-8.67 9.02-8.67 9.02-23.02m128.02 59.39-63.09-157.72h47.46l29.98 89.38q3.84 11.65 5.26 27.56h.85q1.57-14.63 6.11-27.56l29.42-89.38h46.46l-67.21 179.18q-9.23 24.86-26.36 37.23-17.12 12.36-40 12.36-11.22 0-22.02-2.42v-34.38q7.82 1.84 17.05 1.84 11.51 0 20.11-7.03 8.59-7.03 13.42-21.24zm171.93-80.99v82.13h-43.34v-207.74h119.08v36.1h-75.74v53.56h70.48v35.95zm156.3-138.96v221.09h-43.34V1354.5zm80 141.38q0 23.58 7.74 35.66t25.22 12.08q17.34 0 24.94-12.01 7.6-12 7.6-35.73 0-23.59-7.67-35.38-7.68-11.8-25.15-11.8-17.34 0-25.01 11.73-7.67 11.72-7.67 35.45m109.83 0q0 38.79-20.46 60.67t-56.98 21.88q-22.87 0-40.35-10.02-17.48-10.01-26.86-28.77-9.37-18.75-9.37-43.76 0-38.94 20.32-60.53 20.31-21.6 57.12-21.6 22.87 0 40.35 9.95 17.48 9.94 26.85 28.56 9.38 18.61 9.38 43.62m213.56 79.71h-47.17l-12.22-55.56-16.48-70.19h-1l-28.98 125.75h-46.61l-45.18-158.86h43.19l18.33 70.34q4.41 18.9 8.95 52.14h.86q.56-10.79 4.97-34.24l2.27-12.08 19.61-76.16h47.74l18.62 76.16q.56 3.13 1.77 9.24t2.35 13q1.13 6.89 2.06 13.5.92 6.61 1.06 10.58h.86q1.27-10.23 4.54-28.06t4.69-24.08l19.04-70.34h42.49z"/></svg>