<svg xmlns="http://www.w3.org/2000/svg" width="3000" height="2000" viewBox="0 0 3000 2000"><rect width="100%" height="100%" fill="#e5e5e5"/><path d="M750.68 1018.27q0 28.72-20.66 45.25-20.67 16.53-57.5 16.53-33.94 0-60.04-12.76v-41.77q21.46 9.57 36.33 13.49 14.86 3.92 27.19 3.92 14.79 0 22.69-5.66 7.91-5.66 7.91-16.82 0-6.24-3.49-11.1-3.48-4.85-10.22-9.35t-27.48-14.36q-19.43-9.13-29.15-17.54-9.72-8.42-15.52-19.58-5.8-11.17-5.8-26.11 0-28.13 19.07-44.23 19.07-16.09 52.72-16.09 16.53 0 31.54 3.91 15.01 3.92 31.4 11.02l-14.51 34.95q-16.96-6.96-28.06-9.71-11.09-2.76-21.82-2.76-12.76 0-19.58 5.95-6.82 5.94-6.82 15.51 0 5.95 2.76 10.37 2.75 4.43 8.77 8.56t28.5 14.86q29.73 14.22 40.75 28.5t11.02 35.02m103.26 26.54q11.6 0 27.84-5.08v32.92q-16.53 7.4-40.61 7.4-26.54 0-38.64-13.41-12.11-13.42-12.11-40.25v-78.16h-21.18v-18.71l24.37-14.79 12.76-34.23h28.28v34.52h45.39v33.21h-45.39v78.16q0 9.43 5.29 13.93 5.29 4.49 14 4.49m194.47 32.34h-30.89l-8.56-22.04h-1.16q-11.17 14.06-22.98 19.5-11.82 5.44-30.82 5.44-23.35 0-36.76-13.34-13.42-13.34-13.42-38 0-25.81 18.06-38.06 18.05-12.26 54.45-13.56l28.14-.87v-7.11q0-24.65-25.24-24.65-19.43 0-45.68 11.74l-14.65-29.87q27.99-14.65 62.07-14.65 32.63 0 50.03 14.21 17.41 14.22 17.41 43.22zm-43.94-61.78v-13.34l-17.12.58q-19.28.58-28.71 6.96t-9.43 19.43q0 18.71 21.47 18.71 15.37 0 24.58-8.85 9.21-8.84 9.21-23.49m130.66 60.62-64.39-160.97h48.44l30.6 91.22q3.91 11.89 5.36 28.13h.87q1.6-14.94 6.24-28.13l30.02-91.22h47.42l-68.6 182.87q-9.42 25.38-26.9 37.99-17.47 12.62-40.82 12.62-11.46 0-22.48-2.47v-35.09q7.98 1.88 17.4 1.88 11.75 0 20.52-7.17 8.78-7.18 13.71-21.68zm290.18-173.44v174.6h-44.95v-174.6h-57.58v-37.42h160.1v37.42zm235.51 174.6h-33.93l-5.95-20.74h-2.32q-7.1 11.31-20.15 17.48-13.06 6.16-29.73 6.16-28.57 0-43.07-15.3-14.51-15.3-14.51-44.01V915.02h44.23v94.7q0 17.54 6.24 26.32 6.24 8.77 19.87 8.77 18.56 0 26.83-12.4 8.26-12.4 8.26-41.11v-76.28h44.23zm196.07-105.72v105.72h-44.23v-94.7q0-17.55-6.24-26.32-6.23-8.77-19.86-8.77-18.57 0-26.83 12.4-8.27 12.4-8.27 41.11v76.28h-44.23V915.02h33.79l5.95 20.74h2.46q7.4-11.75 20.38-17.77t29.51-6.02q28.28 0 42.92 15.3 14.65 15.3 14.65 44.16m112.68-27.99q-14.07 0-22.04 8.92-7.98 8.92-9.14 25.31h62.07q-.29-16.39-8.56-25.31-8.26-8.92-22.33-8.92m6.24 136.61q-39.16 0-61.2-21.61t-22.04-61.2q0-40.75 20.37-63.01 20.38-22.26 56.34-22.26 34.37 0 53.51 19.58 19.15 19.58 19.15 54.09v21.47h-104.56q.72 18.85 11.16 29.43 10.44 10.59 29.3 10.59 14.64 0 27.7-3.04 13.05-3.05 27.26-9.72v34.22q-11.6 5.8-24.8 8.63t-32.19 2.83m153.43 0q-28.57 0-44.89-22.19-16.31-22.19-16.31-61.49 0-39.88 16.6-62.14 16.61-22.26 45.76-22.26 30.6 0 46.69 23.79h1.45q-3.33-18.13-3.33-32.34V851.5h44.37v225.65h-33.93l-8.56-21.03h-1.88q-15.08 23.93-45.97 23.93m15.51-35.24q16.97 0 24.87-9.86 7.91-9.86 8.63-33.5v-4.79q0-26.1-8.04-37.41-8.05-11.31-26.18-11.31-14.79 0-22.99 12.54-8.19 12.55-8.19 36.47 0 23.93 8.27 35.9 8.26 11.96 23.63 11.96m242.77-179.68-7.4 141.69h-35.38l-7.4-141.69zm-50.76 191.28q0-12.18 6.53-18.42 6.52-6.23 18.99-6.23 12.04 0 18.64 6.38t6.6 18.27q0 11.46-6.67 18.06-6.68 6.6-18.57 6.6-12.18 0-18.85-6.46-6.67-6.45-6.67-18.2"/></svg>