<svg xmlns="http://www.w3.org/2000/svg" width="300" height="450" viewBox="0 0 300 450"><rect width="100%" height="100%" fill="#C5C5C5"/><path fill="#212121" d="m73.515 217.08-.91 1.71q-.16.28-.34.41-.19.13-.46.13-.28 0-.61-.21-.33-.21-.79-.47-.46-.25-1.07-.46-.62-.21-1.45-.21-.76 0-1.33.18-.56.18-.95.51-.38.32-.57.77-.19.46-.19 1 0 .69.38 1.14.39.46 1.02.79.64.32 1.45.58.81.25 1.66.54.85.29 1.66.68.81.38 1.44.97.64.59 1.02 1.44.39.85.39 2.06 0 1.33-.46 2.48-.45 1.16-1.32 2.01-.87.86-2.13 1.35-1.25.5-2.87.5-.93 0-1.84-.19-.9-.18-1.73-.52-.83-.33-1.56-.81-.73-.47-1.3-1.05l1.07-1.74q.13-.19.35-.32.22-.13.46-.13.34 0 .73.28.39.28.93.61.54.34 1.26.62.72.28 1.74.28 1.55 0 2.4-.74.85-.74.85-2.11 0-.77-.38-1.26-.39-.48-1.02-.81-.64-.34-1.45-.56-.81-.23-1.64-.5-.84-.27-1.65-.65-.81-.38-1.45-.99-.63-.61-1.02-1.52-.38-.91-.38-2.24 0-1.07.43-2.08.42-1.02 1.23-1.8t2-1.25q1.19-.48 2.73-.48 1.72 0 3.18.54 1.46.54 2.49 1.52Zm17.14-1.84v2.98h-5.89v16.54h-3.63v-16.54h-5.88v-2.98h15.4Zm6.67 12.15h6.21l-2.38-6.49q-.17-.44-.36-1.03-.19-.59-.38-1.28-.17.69-.36 1.29-.19.6-.37 1.04l-2.36 6.47Zm4.95-12.15 7.67 19.52h-2.81q-.47 0-.77-.24-.29-.23-.44-.58l-1.46-3.99h-8.09l-1.45 3.99q-.11.31-.42.56-.31.26-.77.26h-2.84l7.68-19.52h3.7Zm25.19 0-7.11 11.96v7.56h-3.62v-7.56l-7.11-11.96h3.2q.47 0 .75.23.27.23.46.58l3.57 6.52q.31.58.54 1.09.24.52.43 1.03.17-.51.4-1.03.23-.51.53-1.09l3.55-6.52q.15-.3.45-.55.29-.26.75-.26h3.21Zm22.2 0v2.98h-5.89v16.54h-3.63v-16.54h-5.88v-2.98h15.4Zm10.42 16.59q1.05 0 1.88-.35.83-.35 1.4-.99.57-.63.87-1.53.31-.91.31-2.03v-11.69h3.63v11.69q0 1.74-.56 3.22-.56 1.48-1.61 2.55-1.05 1.07-2.54 1.68-1.5.6-3.38.6-1.89 0-3.39-.6-1.5-.61-2.54-1.68-1.05-1.07-1.61-2.55-.56-1.48-.56-3.22v-11.69h3.63v11.68q0 1.12.31 2.02.3.91.87 1.55.58.64 1.41.99t1.88.35Zm25.45-16.59h3.2v19.52h-1.87q-.43 0-.72-.14t-.56-.48l-10.19-13.01q.08.89.08 1.64v11.99h-3.2v-19.52h1.9q.23 0 .4.02t.3.08q.13.06.25.18.12.11.27.3l10.23 13.07q-.04-.47-.06-.93-.03-.46-.03-.85v-11.87Zm19.86 2.89h-8.67v5.41h6.83v2.8h-6.83v5.52h8.67v2.9h-12.32v-19.52h12.32v2.89Zm20.54 6.87q0 2.15-.71 3.94-.72 1.8-2.01 3.09-1.3 1.3-3.12 2.01-1.82.72-4.05.72h-7.44v-19.52h7.44q2.23 0 4.05.72 1.82.72 3.12 2.01 1.29 1.29 2.01 3.09.71 1.79.71 3.94Zm-3.72 0q0-1.61-.43-2.88-.42-1.28-1.23-2.16-.8-.89-1.94-1.36-1.14-.47-2.57-.47h-3.8v13.74h3.8q1.43 0 2.57-.47t1.94-1.36q.81-.88 1.23-2.16.43-1.27.43-2.88Zm13.55-9.76h3.13v7.72q0 1.23-.12 2.41-.12 1.18-.31 2.51h-2.27q-.19-1.33-.31-2.51-.12-1.18-.12-2.41v-7.72Zm-.52 17.68q0-.41.15-.79.16-.38.43-.65.28-.27.66-.43.38-.16.81-.16.42 0 .79.16.38.16.66.43t.44.65q.16.38.16.79 0 .44-.16.81-.16.37-.44.64t-.66.42q-.37.16-.79.16-.43 0-.81-.16-.38-.15-.66-.42-.27-.27-.43-.64-.15-.37-.15-.81Z"/></svg>