<svg xmlns="http://www.w3.org/2000/svg" width="2000" height="3000" viewBox="0 0 2000 3000"><rect width="100%" height="100%" fill="#e5e5e5"/><path d="M500.46 1512.18q0 19.14-13.78 30.16t-38.33 11.02q-22.63 0-40.03-8.5v-27.85q14.31 6.38 24.22 8.99t18.13 2.61q9.86 0 15.13-3.77t5.27-11.21q0-4.16-2.32-7.4t-6.82-6.23q-4.49-3-18.32-9.57-12.96-6.1-19.43-11.7-6.48-5.61-10.35-13.05-3.86-7.45-3.86-17.41 0-18.75 12.71-29.48 12.71-10.74 35.14-10.74 11.02 0 21.03 2.61t20.93 7.35l-9.67 23.3q-11.31-4.64-18.7-6.48-7.4-1.83-14.55-1.83-8.51 0-13.06 3.96-4.54 3.97-4.54 10.35 0 3.96 1.84 6.91 1.83 2.95 5.85 5.7 4.01 2.76 18.99 9.91 19.82 9.48 27.17 19t7.35 23.35m68.83 17.69q7.74 0 18.57-3.38v21.94q-11.03 4.93-27.07 4.93-17.7 0-25.77-8.94t-8.07-26.83v-52.11h-14.12v-12.47l16.24-9.86 8.51-22.82h18.86v23.01h30.26v22.14h-30.26v52.11q0 6.29 3.52 9.28 3.53 3 9.33 3m129.65 21.56h-20.59l-5.71-14.7h-.77q-7.44 9.38-15.32 13.01-7.88 3.62-20.55 3.62-15.56 0-24.51-8.89-8.94-8.9-8.94-25.33 0-17.21 12.04-25.38 12.03-8.17 36.3-9.04l18.76-.58v-4.74q0-16.43-16.83-16.43-12.95 0-30.45 7.83l-9.76-19.92q18.66-9.76 41.37-9.76 21.76 0 33.36 9.47 11.6 9.48 11.6 28.81zm-29.29-41.19v-8.89l-11.41.39q-12.86.38-19.14 4.64-6.29 4.25-6.29 12.95 0 12.47 14.31 12.47 10.25 0 16.39-5.89 6.14-5.9 6.14-15.67m87.11 40.42-42.93-107.32h32.29l20.4 60.81q2.61 7.93 3.58 18.76h.58q1.06-9.96 4.15-18.76l20.02-60.81h31.61l-45.73 121.92q-6.28 16.91-17.93 25.33-11.65 8.41-27.22 8.41-7.64 0-14.98-1.65v-23.39q5.31 1.25 11.6 1.25 7.83 0 13.68-4.78 5.85-4.79 9.14-14.46zm193.45-115.63v116.4h-29.97v-116.4h-38.38v-24.95h106.73v24.95zm157.01 116.4h-22.62l-3.97-13.83h-1.54q-4.74 7.55-13.44 11.65-8.7 4.11-19.82 4.11-19.05 0-28.72-10.2-9.66-10.2-9.66-29.34v-70.48h29.48v63.13q0 11.7 4.16 17.55t13.25 5.85q12.37 0 17.88-8.27 5.51-8.26 5.51-27.4v-50.86h29.49zm130.71-70.48v70.48h-29.49v-63.13q0-11.7-4.15-17.55-4.16-5.85-13.25-5.85-12.37 0-17.89 8.27-5.51 8.26-5.51 27.41v50.85h-29.48v-108.09h22.52l3.97 13.83h1.64q4.93-7.83 13.58-11.85 8.66-4.01 19.68-4.01 18.85 0 28.62 10.2 9.76 10.2 9.76 29.44m75.12-18.66q-9.38 0-14.69 5.95-5.32 5.94-6.1 16.87h41.38q-.19-10.93-5.7-16.87-5.51-5.95-14.89-5.95m4.16 91.07q-26.11 0-40.8-14.4-14.7-14.41-14.7-40.8 0-27.17 13.59-42.01 13.58-14.84 37.56-14.84 22.91 0 35.67 13.05 12.76 13.06 12.76 36.07v14.3h-69.7q.48 12.57 7.44 19.63t19.53 7.06q9.77 0 18.47-2.03t18.17-6.48v22.82q-7.73 3.86-16.53 5.75-8.8 1.88-21.46 1.88m102.28 0q-19.04 0-29.92-14.79-10.87-14.79-10.87-40.99 0-26.59 11.07-41.43t30.5-14.84q20.4 0 31.13 15.86h.97q-2.23-12.09-2.23-21.56V1401h29.59v150.43h-22.63l-5.7-14.02h-1.26q-10.05 15.95-30.65 15.95m10.35-23.49q11.31 0 16.58-6.57 5.27-6.58 5.75-22.34v-3.19q0-17.4-5.36-24.94-5.37-7.54-17.45-7.54-9.87 0-15.33 8.36t-5.46 24.32q0 15.95 5.51 23.92 5.51 7.98 15.76 7.98m161.84-119.79-4.93 94.46h-23.59l-4.93-94.46zm-33.84 127.52q0-8.12 4.35-12.27 4.35-4.16 12.67-4.16 8.02 0 12.42 4.25 4.4 4.26 4.4 12.18 0 7.64-4.45 12.04-4.44 4.4-12.37 4.4-8.12 0-12.57-4.3t-4.45-12.14"/></svg>