<svg width="22" height="33" viewBox="0 0 22 33" fill="none" xmlns="http://www.w3.org/2000/svg">
<path d="M17.575 16.0565C18.475 14.769 19 13.2002 19 11.5002C19 7.08149 15.4187 3.50024 11 3.50024C6.58125 3.50024 3 7.08149 3 11.5002C3 13.2002 3.525 14.769 4.425 16.0565C4.65625 16.3877 4.93125 16.7627 5.225 17.1627C6.03125 18.269 6.99375 19.594 7.7125 20.9002C8.3625 22.0877 8.69375 23.3252 8.85625 24.494H5.8125C5.675 23.744 5.44375 23.0127 5.075 22.3377C4.45625 21.2127 3.6875 20.1565 2.91875 19.1002C2.59375 18.6565 2.26875 18.2127 1.95625 17.7627C0.725 15.994 0 13.8315 0 11.5002C0 5.42524 4.925 0.500244 11 0.500244C17.075 0.500244 22 5.42524 22 11.5002C22 13.8315 21.275 15.994 20.0375 17.769C19.725 18.219 19.4 18.6627 19.075 19.1065C18.3063 20.1565 17.5375 21.2127 16.9188 22.344C16.55 23.019 16.3188 23.7502 16.1812 24.5002H13.15C13.3125 23.3315 13.6438 22.0877 14.2937 20.9065C15.0125 19.6002 15.975 18.2752 16.7812 17.169C17.075 16.769 17.3438 16.394 17.575 16.0627V16.0565ZM11 8.50024C9.34375 8.50024 8 9.84399 8 11.5002C8 12.0502 7.55 12.5002 7 12.5002C6.45 12.5002 6 12.0502 6 11.5002C6 8.73774 8.2375 6.50024 11 6.50024C11.55 6.50024 12 6.95024 12 7.50024C12 8.05024 11.55 8.50024 11 8.50024ZM11 32.5002C8.2375 32.5002 6 30.2627 6 27.5002V26.5002H16V27.5002C16 30.2627 13.7625 32.5002 11 32.5002Z" fill="black"/>
</svg>
