<svg width="20" height="17" viewBox="0 0 20 17" fill="none" xmlns="http://www.w3.org/2000/svg">
<path d="M9.99999 0.897461C7.19443 0.897461 4.9479 2.17524 3.31249 3.69607C1.68749 5.20301 0.600681 7.00857 0.086792 8.24815C-0.0277913 8.52245 -0.0277913 8.82801 0.086792 9.10231C0.600681 10.3419 1.68749 12.1475 3.31249 13.6544C4.9479 15.1752 7.19443 16.453 9.99999 16.453C12.8055 16.453 15.0521 15.1752 16.6875 13.6544C18.3125 12.144 19.3993 10.3419 19.9167 9.10231C20.0312 8.82801 20.0312 8.52245 19.9167 8.24815C19.3993 7.00857 18.3125 5.20301 16.6875 3.69607C15.0521 2.17524 12.8055 0.897461 9.99999 0.897461ZM4.99999 8.67523C4.99999 7.34915 5.52677 6.07738 6.46445 5.1397C7.40213 4.20202 8.6739 3.67524 9.99999 3.67524C11.3261 3.67524 12.5978 4.20202 13.5355 5.1397C14.4732 6.07738 15 7.34915 15 8.67523C15 10.0013 14.4732 11.2731 13.5355 12.2108C12.5978 13.1484 11.3261 13.6752 9.99999 13.6752C8.6739 13.6752 7.40213 13.1484 6.46445 12.2108C5.52677 11.2731 4.99999 10.0013 4.99999 8.67523ZM9.99999 6.45301C9.99999 7.67871 9.00346 8.67523 7.77776 8.67523C7.53124 8.67523 7.29513 8.63357 7.0729 8.56065C6.88193 8.49815 6.65971 8.6162 6.66665 8.81759C6.67707 9.05718 6.71179 9.29676 6.77776 9.53634C7.25346 11.3141 9.08332 12.3697 10.8611 11.894C12.6389 11.4183 13.6944 9.58843 13.2187 7.81065C12.8333 6.36968 11.559 5.40093 10.1423 5.3419C9.94096 5.33496 9.8229 5.55371 9.8854 5.74815C9.95832 5.97037 9.99999 6.20648 9.99999 6.45301Z" fill="white"/>
</svg>
