<svg width="14" height="16" viewBox="0 0 14 16" fill="none" xmlns="http://www.w3.org/2000/svg">
<path d="M9.73476 11.9533L7.93676 13.6913C7.62609 14.0027 7.19609 14.1327 6.72143 14.1327C6.24676 14.1327 5.81676 14.0027 5.50543 13.6913L2.61743 10.7827C2.30609 10.4713 2.14943 10.016 2.14943 9.54066C2.14943 9.06533 2.30609 8.636 2.61743 8.32466L5.49676 5.40466C5.80809 5.09333 6.24676 4.97466 6.72143 4.97466C7.19609 4.97466 7.62609 5.10466 7.93676 5.416L9.73476 7.15333C10.0774 7.49666 10.6448 7.48466 11.0014 7.128C11.3581 6.77066 11.3701 6.20333 11.0274 5.86066L9.28809 4.10333C8.839 3.65937 8.27421 3.35052 7.65809 3.212L9.30276 1.54333C9.64676 1.20066 9.63476 0.632664 9.27809 0.275997C8.92143 -0.0806695 8.35343 -0.0920028 8.01009 0.250664L1.27676 6.98466C0.622762 7.63933 0.280762 8.54266 0.280762 9.54133C0.280762 10.54 0.622762 11.4713 1.27676 12.1247L4.17476 15.032C4.82876 15.6847 5.73276 16 6.73076 16C7.72876 16 8.63276 15.6587 9.28743 15.004L11.0268 13.246C11.3694 12.9033 11.3574 12.336 11.0008 11.9793C10.6441 11.6227 10.0768 11.6107 9.73476 11.9533ZM12.8741 8.67333H6.11076C5.64276 8.67333 5.26409 9.076 5.26409 9.57066C5.26409 10.0653 5.64276 10.468 6.11076 10.468H12.8741C13.3414 10.468 13.7208 10.0653 13.7208 9.57066C13.7208 9.076 13.3414 8.67333 12.8741 8.67333Z" fill="white"/>
</svg>
