<svg width="24" height="25" viewBox="0 0 24 25" fill="none" xmlns="http://www.w3.org/2000/svg">
<path d="M7.34061 18.5424L5.89217 17.094C5.49373 16.6956 5.35311 16.119 5.53123 15.5846C5.67186 15.1674 5.85936 14.6237 6.08436 14.0003H1.12498C0.721859 14.0003 0.346859 13.7846 0.145297 13.4331C-0.0562656 13.0815 -0.0515781 12.6503 0.154672 12.3034L2.61561 8.15495C3.22498 7.12838 4.32655 6.50026 5.51717 6.50026H9.37498C9.48748 6.31276 9.59998 6.13932 9.71248 5.97057C13.5515 0.308071 19.2703 0.120571 22.6828 0.748696C23.2265 0.847134 23.6484 1.2737 23.7515 1.81745C24.3797 5.23463 24.1875 10.9487 18.5297 14.7878C18.3656 14.9003 18.1875 15.0128 18 15.1253V18.9831C18 20.1737 17.3719 21.2799 16.3453 21.8846L12.1969 24.3456C11.85 24.5518 11.4187 24.5565 11.0672 24.3549C10.7156 24.1534 10.5 23.7831 10.5 23.3753V18.3503C9.83905 18.5799 9.26248 18.7674 8.82655 18.9081C8.30155 19.0768 7.72967 18.9315 7.33592 18.5424H7.34061ZM18 8.37526C18.4973 8.37526 18.9742 8.17771 19.3258 7.82608C19.6774 7.47445 19.875 6.99754 19.875 6.50026C19.875 6.00298 19.6774 5.52606 19.3258 5.17443C18.9742 4.8228 18.4973 4.62526 18 4.62526C17.5027 4.62526 17.0258 4.8228 16.6742 5.17443C16.3225 5.52606 16.125 6.00298 16.125 6.50026C16.125 6.99754 16.3225 7.47445 16.6742 7.82608C17.0258 8.17771 17.5027 8.37526 18 8.37526Z" fill="black"/>
</svg>
