<svg width="22" height="22" viewBox="0 0 22 22" fill="none" xmlns="http://www.w3.org/2000/svg">
<path d="M18.5212 3.55388C16.5571 1.58513 13.9415 0.502319 11.1618 0.502319C5.42432 0.502319 0.755566 5.17107 0.755566 10.9086C0.755566 12.7414 1.23369 14.532 2.14307 16.1117L0.666504 21.5023L6.18369 20.0539C7.70244 20.8836 9.41338 21.3195 11.1571 21.3195H11.1618C16.8946 21.3195 21.6665 16.6508 21.6665 10.9133C21.6665 8.13357 20.4853 5.52263 18.5212 3.55388ZM11.1618 19.5664C9.60557 19.5664 8.08213 19.1492 6.75557 18.3617L6.4415 18.1742L3.16963 19.032L4.0415 15.8398L3.83525 15.5117C2.96807 14.1336 2.51338 12.5445 2.51338 10.9086C2.51338 6.14138 6.39463 2.26013 11.1665 2.26013C13.4774 2.26013 15.6478 3.16013 17.279 4.79607C18.9103 6.43201 19.9134 8.60232 19.9087 10.9133C19.9087 15.6851 15.929 19.5664 11.1618 19.5664ZM15.9056 13.0883C15.6478 12.957 14.3681 12.3289 14.129 12.2445C13.8899 12.1554 13.7165 12.1133 13.5431 12.3758C13.3696 12.6383 12.8728 13.2195 12.7181 13.3976C12.5681 13.5711 12.4134 13.5945 12.1556 13.4633C10.6274 12.6992 9.62432 12.0992 8.6165 10.3695C8.34932 9.91013 8.88369 9.94294 9.38057 8.94919C9.46494 8.77576 9.42275 8.62576 9.35713 8.49451C9.2915 8.36326 8.77119 7.08357 8.55557 6.56326C8.34463 6.05701 8.129 6.12732 7.96963 6.11794C7.81963 6.10857 7.64619 6.10857 7.47275 6.10857C7.29932 6.10857 7.01807 6.17419 6.779 6.43201C6.53994 6.69451 5.86963 7.32263 5.86963 8.60232C5.86963 9.88201 6.80244 11.1195 6.929 11.2929C7.06025 11.4664 8.76182 14.0914 11.3728 15.2211C13.0228 15.9336 13.6696 15.9945 14.4946 15.8726C14.9962 15.7976 16.0321 15.2445 16.2478 14.6351C16.4634 14.0258 16.4634 13.5054 16.3978 13.3976C16.3368 13.2804 16.1634 13.2148 15.9056 13.0883Z" fill="white"/>
</svg>
